<svg width="30" height="30" xmlns="http://www.w3.org/2000/svg" xmlns:xlink="http://www.w3.org/1999/xlink" xml:space="preserve" overflow="hidden"><g transform="translate(-38 -641)"><path d="M63.8827 665.108 59.6335 660.871C61.0045 659.125 61.7484 656.968 61.7456 654.747 61.7456 652.77 61.1592 650.837 60.0606 649.193 58.962 647.549 57.4005 646.267 55.5736 645.51 53.7466 644.754 51.7364 644.556 49.7969 644.941 47.8575 645.327 46.076 646.279 44.6777 647.678 43.2794 649.076 42.3272 650.857 41.9414 652.797 41.5556 654.736 41.7536 656.747 42.5104 658.574 43.2671 660.401 44.5486 661.962 46.1928 663.061 47.837 664.159 49.77 664.746 51.7475 664.746 53.9679 664.748 56.1247 664.005 57.8713 662.633L62.1081 666.883C62.2242 667 62.3625 667.093 62.5147 667.156 62.6671 667.22 62.8304 667.252 62.9954 667.252 63.1603 667.252 63.3237 667.22 63.476 667.156 63.6283 667.093 63.7665 667 63.8827 666.883 63.9999 666.767 64.0928 666.628 64.1563 666.476 64.2197 666.324 64.2524 666.16 64.2524 665.995 64.2524 665.83 64.2197 665.667 64.1563 665.515 64.0928 665.362 63.9999 665.224 63.8827 665.108L63.8827 665.108ZM44.2488 654.747C44.2488 653.264 44.6886 651.815 45.5126 650.581 46.3366 649.348 47.5077 648.387 48.8779 647.82 50.2481 647.252 51.7558 647.104 53.2103 647.393 54.6649 647.682 56.0011 648.396 57.0498 649.445 58.0985 650.494 58.8127 651.83 59.102 653.285 59.3913 654.739 59.2428 656.247 58.6753 657.617 58.1077 658.987 57.1466 660.158 55.9135 660.982 54.6803 661.806 53.2305 662.246 51.7475 662.246 49.7587 662.246 47.8514 661.456 46.4451 660.05 45.0389 658.644 44.2488 656.736 44.2488 654.747Z" fill="#002C5F"/></g></svg>